<svg xmlns="http://www.w3.org/2000/svg" xmlns:xlink="http://www.w3.org/1999/xlink" width="1123" zoomAndPan="magnify" viewBox="0 0 842.25 595.499986" height="794" preserveAspectRatio="xMidYMid meet" version="1.0"><defs><g/><clipPath id="38ca750c70"><path d="M 0.242188 0.40625 L 651.023438 0.40625 L 651.023438 214.535156 L 0.242188 214.535156 Z M 0.242188 0.40625 " clip-rule="nonzero"/></clipPath><clipPath id="ec23cd169d"><rect x="0" width="652" y="0" height="215"/></clipPath><clipPath id="e477b0b46a"><rect x="0" width="652" y="0" height="215"/></clipPath></defs><g transform="matrix(1, 0, 0, 1, 88, 190)"><g clip-path="url(#e477b0b46a)"><g clip-path="url(#38ca750c70)"><g><g clip-path="url(#ec23cd169d)"><g fill="#ffffff" fill-opacity="1"><g transform="translate(0.303664, 157.713203)"><g><path d="M 36.703125 0 L 36.703125 -80.25 L 4.375 -80.25 L 4.375 -101.953125 L 92.203125 -101.953125 L 92.203125 -80.25 L 59.859375 -80.25 L 59.859375 0 Z M 36.703125 0 "/></g></g></g><g fill="#ffffff" fill-opacity="1"><g transform="translate(158.637748, 157.713203)"><g><path d="M 12.234375 0 L 12.234375 -101.953125 L 55.78125 -101.953125 C 63.550781 -101.953125 70.300781 -100.546875 76.03125 -97.734375 C 81.757812 -94.921875 86.175781 -90.890625 89.28125 -85.640625 C 92.394531 -80.398438 93.953125 -74.140625 93.953125 -66.859375 C 93.953125 -59.378906 92.25 -52.941406 88.84375 -47.546875 C 85.445312 -42.160156 80.691406 -38.109375 74.578125 -35.390625 L 95.703125 0 L 68.890625 0 L 50.6875 -31.75 L 35.390625 -31.75 L 35.390625 0 Z M 35.109375 -51.265625 L 52.734375 -51.265625 C 58.460938 -51.265625 62.851562 -52.597656 65.90625 -55.265625 C 68.96875 -57.941406 70.5 -61.753906 70.5 -66.703125 C 70.5 -71.660156 68.96875 -75.472656 65.90625 -78.140625 C 62.851562 -80.816406 58.460938 -82.15625 52.734375 -82.15625 L 35.109375 -82.15625 Z M 35.109375 -51.265625 "/></g></g></g><g fill="#ffffff" fill-opacity="1"><g transform="translate(322.94385, 157.713203)"><g><path d="M 12.234375 0 L 12.234375 -101.953125 L 79.234375 -101.953125 L 79.234375 -82.4375 L 35.25 -82.4375 L 35.25 -61.328125 L 75.296875 -61.328125 L 75.296875 -41.953125 L 35.25 -41.953125 L 35.25 -19.65625 L 80.84375 -19.65625 L 80.84375 0 Z M 12.234375 0 "/></g></g></g><g fill="#ffffff" fill-opacity="1"><g transform="translate(472.975433, 157.713203)"><g><path d="M 12.234375 0 L 12.234375 -101.953125 L 52.578125 -101.953125 C 63.359375 -101.953125 72.773438 -99.816406 80.828125 -95.546875 C 88.890625 -91.273438 95.15625 -85.300781 99.625 -77.625 C 104.09375 -69.957031 106.328125 -61.078125 106.328125 -50.984375 C 106.328125 -40.785156 104.09375 -31.875 99.625 -24.25 C 95.15625 -16.625 88.890625 -10.675781 80.828125 -6.40625 C 72.773438 -2.132812 63.359375 0 52.578125 0 Z M 35.390625 -21.265625 L 52.140625 -21.265625 C 58.160156 -21.265625 63.453125 -22.5 68.015625 -24.96875 C 72.585938 -27.445312 76.160156 -30.921875 78.734375 -35.390625 C 81.304688 -39.859375 82.59375 -45.054688 82.59375 -50.984375 C 82.59375 -57.003906 81.304688 -62.222656 78.734375 -66.640625 C 76.160156 -71.054688 72.566406 -74.5 67.953125 -76.96875 C 63.335938 -79.445312 57.972656 -80.6875 51.859375 -80.6875 L 35.390625 -80.6875 Z M 35.390625 -21.265625 "/></g></g></g></g></g></g></g></g></svg>